<?xml version="1.0" standalone="no"?>
<!DOCTYPE svg PUBLIC "-//W3C//DTD SVG 1.1//EN" 
	"http://www.w3.org/Graphics/SVG/1.1/DTD/svg11.dtd">

<svg width="100%" height="100%" viewBox="0 0 400 300"
	xmlns="http://www.w3.org/2000/svg"
	xmlns:xlink="http://www.w3.org/1999/xlink"
	version="1.1" onload="init()">
	<desc>24 hour sun clock.</desc>

	<script xlink:href="sun.js" />
	<script type="text/javascript">
	// <![CDATA[

		var sunrise = new Date().sunrise(-33.881732,151.201465);
		window.alert(sunrise.toLocaleTimeString());

		var sunset = new Date().sunset(-33.881732,151.201465);
		window.alert(sunset.toLocaleTimeString());
		
		// convert sunrse and sunset times to an angle
		// draw an arc. see: https://developer.mozilla.org/en/docs/Web/SVG/Tutorial/Paths
		
	// ]]>
	</script>
	<script type="text/ecmascript">
	<![CDATA[
		var now = new Date();
		var hours, minutes, seconds;
		var hourAngle, minuteAngle, secondAngle;
		
		function tick() {
			now = new Date();
			seconds  = now.getSeconds();
			minutes  = now.getMinutes() + seconds/60; // add fractions of minutes
			hours    = now.getHours() + minutes/60;   // add fractions of hours

			secondAngle  = 'rotate(' + -seconds*6 + ')'; // 6 degrees per second
			minuteAngle  = 'rotate(' + -minutes*6 + ')'; // 6 degrees per minute
			hourAngle    = 'rotate(' + -hours*15  + ')'; // 15 degrees per hour
			
			document.getElementById('secondHand').setAttribute("transform",secondAngle);
			document.getElementById('minuteHand').setAttribute("transform",minuteAngle);
			document.getElementById('hourHand').setAttribute("transform", hourAngle);
		}
		
		function init() {
			tick();
			timer = setInterval('tick()',1000);
		}
	]]>
	</script>
		
	<g transform="translate(200,150)">
	
		<circle id="clockFace" cx="0" cy="0" r="120" fill="333" stroke="purple" stroke-width="1"/>
		<path   id="daylight"  d="M 0,0 L 120,0 A 120,120 0 0,0 -120,0 z" fill="#5af" stroke="none" stroke-width="0" />

		<g id="hourMarks" fill="none" stroke="#000" stroke-width="2">
			<line transform="rotate(0) translate(0,120)" x1="0" y1="-2" x2="0" y2="2"/>
			<line transform="rotate(-15) translate(0,120)" x1="0" y1="-2" x2="0" y2="2"/>
			<line transform="rotate(-30) translate(0,120)" x1="0" y1="-2" x2="0" y2="2"/>
			<line transform="rotate(-45) translate(0,120)" x1="0" y1="-2" x2="0" y2="2"/>
			<line transform="rotate(-60) translate(0,120)" x1="0" y1="-2" x2="0" y2="2"/>
			<line transform="rotate(-75) translate(0,120)" x1="0" y1="-2" x2="0" y2="2"/>
			<line transform="rotate(-90) translate(0,120)" x1="0" y1="-2" x2="0" y2="2"/>
			<line transform="rotate(-105) translate(0,120)" x1="0" y1="-2" x2="0" y2="2"/>
			<line transform="rotate(-120) translate(0,120)" x1="0" y1="-2" x2="0" y2="2"/>
			<line transform="rotate(-135) translate(0,120)" x1="0" y1="-2" x2="0" y2="2"/>
			<line transform="rotate(-150) translate(0,120)" x1="0" y1="-2" x2="0" y2="2"/>
			<line transform="rotate(-165) translate(0,120)" x1="0" y1="-2" x2="0" y2="2"/>
			<line transform="rotate(-180) translate(0,120)" x1="0" y1="-2" x2="0" y2="2"/>
			<line transform="rotate(-195) translate(0,120)" x1="0" y1="-2" x2="0" y2="2"/>
			<line transform="rotate(-210) translate(0,120)" x1="0" y1="-2" x2="0" y2="2"/>
			<line transform="rotate(-225) translate(0,120)" x1="0" y1="-2" x2="0" y2="2"/>
			<line transform="rotate(-240) translate(0,120)" x1="0" y1="-2" x2="0" y2="2"/>
			<line transform="rotate(-255) translate(0,120)" x1="0" y1="-2" x2="0" y2="2"/>
			<line transform="rotate(-270) translate(0,120)" x1="0" y1="-2" x2="0" y2="2"/>
			<line transform="rotate(-285) translate(0,120)" x1="0" y1="-2" x2="0" y2="2"/>
			<line transform="rotate(-300) translate(0,120)" x1="0" y1="-2" x2="0" y2="2"/>
			<line transform="rotate(-315) translate(0,120)" x1="0" y1="-2" x2="0" y2="2"/>
			<line transform="rotate(-330) translate(0,120)" x1="0" y1="-2" x2="0" y2="2"/>
			<line transform="rotate(-345) translate(0,120)" x1="0" y1="-2" x2="0" y2="2"/>
		</g>		
		
		<line id="hourHand" transform="rotate(0)" x1="0" y1="0" x2="0" y2="105" fill="none" stroke="orange" stroke-width="4"/>
		<line id="minuteHand" transform="rotate(0)" x1="0" y1="0" x2="0" y2="-115" fill="none" stroke="#0a0" stroke-width="2"/>
		<line id="secondHand" transform="rotate(0)" x1="0" y1="0" x2="0" y2="-125" fill="none" stroke="red" stroke-width="1"/>
	
		<!-- g font-family="Verdana" font-size="15" text-anchor="middle">
			<text x="0" y="140">0 Midnight</text>
			<text x="160" y="5">6 Dawn</text>
			<text x="0" y="-130">12 Noon</text>
			<text x="-160" y="5">18 Dusk</text>
		</g -->

		<g id="hourNumbers" font-family="Verdana" font-size="9" text-anchor="middle">
			<text x="0" y="140" transform="rotate(0)">0</text>
			<text x="0" y="140" transform="rotate(-15)">1</text>
			<text x="0" y="140" transform="rotate(-30)">2</text>
			<text x="0" y="140" transform="rotate(-45)">3</text>
			<text x="0" y="140" transform="rotate(-60)">4</text>
			<text x="0" y="140" transform="rotate(-75)">5</text>

			<text x="0" y="-133" transform="rotate(90)">6</text>			
			<text x="0" y="-133" transform="rotate(75)">7</text>
			<text x="0" y="-133" transform="rotate(60)">8</text>
			<text x="0" y="-133" transform="rotate(45)">9</text>
			<text x="0" y="-133" transform="rotate(30)">10</text>
			<text x="0" y="-133" transform="rotate(15)">11</text>
			<text x="0" y="-133" transform="rotate(0)">12</text>
			<text x="0" y="-133" transform="rotate(-15)">13</text>
			<text x="0" y="-133" transform="rotate(-30)">14</text>
			<text x="0" y="-133" transform="rotate(-45)">15</text>
			<text x="0" y="-133" transform="rotate(-60)">16</text>
			<text x="0" y="-133" transform="rotate(-75)">17</text>
			<text x="0" y="-133" transform="rotate(-90)">18</text>
			
			<text x="0" y="140" transform="rotate(-285)">19</text>
			<text x="0" y="140" transform="rotate(-300)">20</text>
			<text x="0" y="140" transform="rotate(-315)">21</text>
			<text x="0" y="140" transform="rotate(-330)">22</text>
			<text x="0" y="140" transform="rotate(-345)">23</text>
		</g>


	</g>
	
</svg>