<?xml version="1.0" standalone="no"?>
<!DOCTYPE svg PUBLIC "-//W3C//DTD SVG 1.1//EN"
	"http://www.w3.org/Graphics/SVG/1.1/DTD/svg11.dtd">

<svg width="100%" height="100%" viewBox="0 0 300 300"
	xmlns="http://www.w3.org/2000/svg"
	xmlns:xlink="http://www.w3.org/1999/xlink"
	version="1.1">
	<desc>Sun Clock</desc>

	<script xlink:href="./scripts/HollowMan6/sun.js" />
	<script type="text/ecmascript">
	<![CDATA[

		var Clock = (function() {
			'use strict';

			var now, delay, info,
				hours, minutes, seconds,
				hourAngle, minuteAngle, secondAngle,
				radius = 120,
				geoOptions = {enableHighAccuracy: false, timeout: 5000, maximumAge: 0};

			function getLocation() {
				if (navigator.geolocation) {
					navigator.geolocation.getCurrentPosition(getDaylight, showLocationError, geoOptions);
				} else {
					showLocationError({message: 'geolocation not supported'});
				}
			}

			function showLocationError(err) {
				window.alert('Location error: ' + err.message);
			}

			function getPoint(date) {
				var angle = (date.getHours() + date.getMinutes()/60) / 24 * 2 * Math.PI; // radians
				return Math.sin(angle)*radius + "," + Math.cos(angle)*radius; // return as string for SVG path attribute
			}

			function getDaylight(position) {
				var today, sunrise, sunset, hoursDaylight,
					arc = "A 120,120 0", flags;

				// TODO: need to check that sunrise and sunset are valid dates: at high latitudes they may not be!
				today = new Date(now.getFullYear(), now.getMonth(), now.getDate(), 12); // today at local noon
				sunrise = today.sunrise(position.coords.latitude, position.coords.longitude);
				sunset  = today.sunset(position.coords.latitude, position.coords.longitude);
				hoursDaylight = (sunset - sunrise) / (1000*3600);

				info = 'Date: ' + now.toLocaleDateString(undefined, { weekday: 'long', year: 'numeric', month: 'long', day: 'numeric' }) + '\n' +
					'Location: ' + position.coords.latitude.toFixed(3) + ', ' + position.coords.longitude.toFixed(3) + '\n\n' +
					'Sunrise: ' + sunrise.toLocaleString() + '\n' +
					'Sunset:  ' + sunset.toLocaleString() + '\n\n' +
					'Hours of daylight: ' + hoursDaylight.toFixed(2);

				// set arc flags based on hours of daylight
				flags = (hoursDaylight >= 12) ? "1,0" : "0,0";

				// draw daylight arc
				document.getElementById('daylight').setAttribute("d","M 0,0 L " + getPoint(sunrise) + " " + arc + " " + flags + " " + getPoint(sunset) + " z");
				document.getElementById('daylight').style.cursor = 'hand';
				document.getElementById('daylight').onclick = function() { window.alert(info); };
			}

			function tick() {
				now = new Date();
				seconds  = now.getSeconds();
				minutes  = now.getMinutes() + seconds/60; // add fractions of minutes
				hours    = now.getHours() + minutes/60;   // add fractions of hours

				secondAngle = 'rotate(' + -seconds*6 + ')'; // 6 degrees per second
				minuteAngle = 'rotate(' + -minutes*6 + ')'; // 6 degrees per minute
				hourAngle   = 'rotate(' + -hours*15  + ')'; // 15 degrees per hour

				document.getElementById('secondHand').setAttribute("transform",secondAngle);
				document.getElementById('minuteHand').setAttribute("transform",minuteAngle);
				document.getElementById('hourHand').setAttribute("transform", hourAngle);

				// make next tick on the second
				delay = 1000 - now.getMilliseconds();
				//console.log(delay);
				setTimeout(tick, delay);
			}

			function init() {
				tick();
				getLocation();
			}

			window.onload = init;

		})();
	]]>
	</script>

	<g transform="translate(150,150)">
		<circle id="clockFace" cx="0" cy="0" r="120" fill="#004" stroke="#000" stroke-width="1"/>
		<path id="daylight"  d="M 0,0 L 120,0 A 120,120 0 0,0 -120,0 z" fill="#9cf" stroke="none" stroke-width="0" />

		<g id="hourMarks" fill="none" stroke="#000" stroke-width="2">
			<line transform="rotate(0) translate(0,120)" x1="0" y1="-2" x2="0" y2="2"/>
			<line transform="rotate(-15) translate(0,120)" x1="0" y1="-2" x2="0" y2="2"/>
			<line transform="rotate(-30) translate(0,120)" x1="0" y1="-2" x2="0" y2="2"/>
			<line transform="rotate(-45) translate(0,120)" x1="0" y1="-2" x2="0" y2="2"/>
			<line transform="rotate(-60) translate(0,120)" x1="0" y1="-2" x2="0" y2="2"/>
			<line transform="rotate(-75) translate(0,120)" x1="0" y1="-2" x2="0" y2="2"/>
			<line transform="rotate(-90) translate(0,120)" x1="0" y1="-2" x2="0" y2="2"/>
			<line transform="rotate(-105) translate(0,120)" x1="0" y1="-2" x2="0" y2="2"/>
			<line transform="rotate(-120) translate(0,120)" x1="0" y1="-2" x2="0" y2="2"/>
			<line transform="rotate(-135) translate(0,120)" x1="0" y1="-2" x2="0" y2="2"/>
			<line transform="rotate(-150) translate(0,120)" x1="0" y1="-2" x2="0" y2="2"/>
			<line transform="rotate(-165) translate(0,120)" x1="0" y1="-2" x2="0" y2="2"/>
			<line transform="rotate(-180) translate(0,120)" x1="0" y1="-2" x2="0" y2="2"/>
			<line transform="rotate(-195) translate(0,120)" x1="0" y1="-2" x2="0" y2="2"/>
			<line transform="rotate(-210) translate(0,120)" x1="0" y1="-2" x2="0" y2="2"/>
			<line transform="rotate(-225) translate(0,120)" x1="0" y1="-2" x2="0" y2="2"/>
			<line transform="rotate(-240) translate(0,120)" x1="0" y1="-2" x2="0" y2="2"/>
			<line transform="rotate(-255) translate(0,120)" x1="0" y1="-2" x2="0" y2="2"/>
			<line transform="rotate(-270) translate(0,120)" x1="0" y1="-2" x2="0" y2="2"/>
			<line transform="rotate(-285) translate(0,120)" x1="0" y1="-2" x2="0" y2="2"/>
			<line transform="rotate(-300) translate(0,120)" x1="0" y1="-2" x2="0" y2="2"/>
			<line transform="rotate(-315) translate(0,120)" x1="0" y1="-2" x2="0" y2="2"/>
			<line transform="rotate(-330) translate(0,120)" x1="0" y1="-2" x2="0" y2="2"/>
			<line transform="rotate(-345) translate(0,120)" x1="0" y1="-2" x2="0" y2="2"/>
		</g>

		<g id="hourNumbers" font-family="Verdana" font-size="9" text-anchor="middle">
			<text x="0" y="140" transform="rotate(0)">0</text>
			<text x="0" y="140" transform="rotate(-15)">1</text>
			<text x="0" y="140" transform="rotate(-30)">2</text>
			<text x="0" y="140" transform="rotate(-45)">3</text>
			<text x="0" y="140" transform="rotate(-60)">4</text>
			<text x="0" y="140" transform="rotate(-75)">5</text>
			<text x="0" y="-133" transform="rotate(90)">6</text>
			<text x="0" y="-133" transform="rotate(75)">7</text>
			<text x="0" y="-133" transform="rotate(60)">8</text>
			<text x="0" y="-133" transform="rotate(45)">9</text>
			<text x="0" y="-133" transform="rotate(30)">10</text>
			<text x="0" y="-133" transform="rotate(15)">11</text>
			<text x="0" y="-133" transform="rotate(0)">12</text>
			<text x="0" y="-133" transform="rotate(-15)">13</text>
			<text x="0" y="-133" transform="rotate(-30)">14</text>
			<text x="0" y="-133" transform="rotate(-45)">15</text>
			<text x="0" y="-133" transform="rotate(-60)">16</text>
			<text x="0" y="-133" transform="rotate(-75)">17</text>
			<text x="0" y="-133" transform="rotate(-90)">18</text>
			<text x="0" y="140" transform="rotate(-285)">19</text>
			<text x="0" y="140" transform="rotate(-300)">20</text>
			<text x="0" y="140" transform="rotate(-315)">21</text>
			<text x="0" y="140" transform="rotate(-330)">22</text>
			<text x="0" y="140" transform="rotate(-345)">23</text>
		</g>

		<line id="hourHand" transform="rotate(0)" x1="0" y1="0" x2="0" y2="105" fill="none" stroke="#f70" stroke-width="4"/>
		<line id="minuteHand" transform="rotate(0)" x1="0" y1="0" x2="0" y2="-115" fill="none" stroke="#0b0" stroke-width="2"/>
		<line id="secondHand" transform="rotate(0)" x1="0" y1="0" x2="0" y2="-122" fill="none" stroke="red" stroke-width="1"/>
		<circle cx="0" cy="0" r="3.5" fill="#f00" stroke="#f00" stroke-width="0"/>

	</g>
</svg>